<?xml version="1.0" encoding="UTF-8"?>
<svg version="1.1" xmlns="http://www.w3.org/2000/svg" width="437" height="350">
<path d="M0 0 C144.21 0 288.42 0 437 0 C437 115.5 437 231 437 350 C292.79 350 148.58 350 0 350 C0 234.5 0 119 0 0 Z " fill="#FEFEFE" transform="translate(0,0)"/>
<path d="M0 0 C0.87269531 0.64582031 1.74539062 1.29164062 2.64453125 1.95703125 C8.38985342 6.35645072 12.66547642 9.99642926 15 17 C15.17136752 19.07888471 15.26642661 21.16457301 15.3125 23.25 C15.36857422 24.89742187 15.36857422 24.89742187 15.42578125 26.578125 C14.71595856 32.28275505 12.24330388 36.1673638 7.94140625 39.80078125 C6.82482906 40.65094704 5.69832017 41.48821908 4.5625 42.3125 C4.00240234 42.74111328 3.44230469 43.16972656 2.86523438 43.61132812 C-0.31879523 45.99284852 -3.31820729 47.57166929 -7 49 C-9.36255984 50.42548683 -11.6837451 51.87838778 -14 53.375 C-26.09358423 61.03609408 -38.46611316 68.19453017 -51.203125 74.734375 C-51.81431686 75.04848328 -52.42550873 75.36259155 -53.05522156 75.68621826 C-56.06837639 77.23134931 -59.08716492 78.76296354 -62.11450195 80.28027344 C-63.21238037 80.8374707 -64.31025879 81.39466797 -65.44140625 81.96875 C-66.41795166 82.45794922 -67.39449707 82.94714844 -68.40063477 83.45117188 C-72.82799584 86.08920875 -75.45832149 89.49472305 -78.25 93.75 C-83.29435185 101.05784306 -88.85040002 107.23864616 -97 111 C-98.32 111 -99.64 111 -101 111 C-101 111.66 -101 112.32 -101 113 C-100.11803955 113.27618164 -99.2360791 113.55236328 -98.32739258 113.83691406 C-95.29240948 114.89778863 -92.60368951 116.11897329 -89.76171875 117.609375 C-88.29702148 118.3664978 -88.29702148 118.3664978 -86.80273438 119.13891602 C-85.77470703 119.67057373 -84.74667969 120.20223145 -83.6875 120.75 C-66.33319604 129.54628608 -47.90413408 137.29185486 -28 136 C-28.77859375 135.8040625 -29.5571875 135.608125 -30.359375 135.40625 C-49.580355 130.26884521 -66.77909178 121.86027906 -84 112 C-81 110 -81 110 -79.08984375 109.09765625 C-71.38901637 105.39399154 -65.05340416 99.21965477 -60.72949219 91.828125 C-56.80698081 85.17510217 -52.60021336 82.58334225 -45.625 79.5 C-43.66239371 78.58037596 -41.70146703 77.65715939 -39.7421875 76.73046875 C-38.29150879 76.05250244 -38.29150879 76.05250244 -36.81152344 75.36083984 C-31.98779837 73.02604968 -27.3708379 70.34702329 -22.74853516 67.640625 C-18.19199543 65 -18.19199543 65 -16 65 C-15.67 63.35 -15.34 61.7 -15 60 C-10.9633544 58.89594066 -8.48133705 59.16701009 -4.51953125 60.44140625 C-3.45025391 60.7751123 -2.38097656 61.10881836 -1.27929688 61.45263672 C-0.13525391 61.8188916 1.00878906 62.18514648 2.1875 62.5625 C11.7267914 65.50693364 21.26415785 68.16079295 31 70.375 C32.0418042 70.6129126 33.0836084 70.8508252 34.15698242 71.09594727 C37.10028714 71.75394055 40.0472913 72.38566962 43 73 C43.92409668 73.19360107 44.84819336 73.38720215 45.80029297 73.58666992 C52.25567667 74.85749134 58.5551238 75.37064464 65.125 75.5625 C66.98191002 75.62211391 68.83869868 75.68568773 70.6953125 75.75390625 C71.9021167 75.78979858 71.9021167 75.78979858 73.13330078 75.82641602 C75 76 75 76 76 77 C76.04063832 78.66617115 76.042721 80.33388095 76 82 C76.66 82 77.32 82 78 82 C76.88024077 85.35927769 76.26397398 85.80914756 73.484375 87.79296875 C72.36554932 88.60229858 72.36554932 88.60229858 71.22412109 89.42797852 C70.40766113 90.00862061 69.59120117 90.5892627 68.75 91.1875 C67.00666485 92.44893628 65.26451994 93.71201876 63.5234375 94.9765625 C62.61432617 95.6355957 61.70521484 96.29462891 60.76855469 96.97363281 C56.25735974 100.27547744 51.81547633 103.66645523 47.375 107.0625 C46.50101563 107.72894531 45.62703125 108.39539063 44.7265625 109.08203125 C40.53986044 112.27812969 36.36547091 115.48874903 32.2109375 118.7265625 C31.45635254 119.31171631 30.70176758 119.89687012 29.92431641 120.49975586 C28.53444267 121.57860126 27.14830686 122.66229086 25.76708984 123.75219727 C18.5239943 129.36480841 10.53420208 133.34500844 2.25 137.1875 C1.52167969 137.52974609 0.79335937 137.87199219 0.04296875 138.22460938 C-1.9654864 139.16322498 -3.98124603 140.08380456 -6 141 C-6.83015625 141.38800781 -7.6603125 141.77601563 -8.515625 142.17578125 C-37.6133182 151.82926123 -69.13018643 136.84106939 -94.59765625 124.2265625 C-96.73346041 123.1544008 -98.86769133 122.07909677 -101 121 C-102.3610083 120.31309082 -102.3610083 120.31309082 -103.74951172 119.61230469 C-106.05580602 118.43322131 -108.34384083 117.22686425 -110.625 116 C-111.27557373 115.66307129 -111.92614746 115.32614258 -112.59643555 114.97900391 C-115.4316037 113.39755665 -116.82557463 112.44738109 -118.0234375 109.375 C-118 107 -118 107 -116 105 C-113.94485717 104.77292827 -111.87866005 104.64096177 -109.8125 104.5625 C-100.13123771 103.91353626 -94.88541328 100.52772947 -88 94 C-90.51876883 94 -92.6959131 94.74117347 -95.10302734 95.42358398 C-107.97417228 98.98282188 -121.28186882 100.28803607 -133.43359375 93.67578125 C-138.22038732 90.68108773 -141.76420264 87.62256766 -145 83 C-145.391875 82.48566406 -145.78375 81.97132813 -146.1875 81.44140625 C-150.5290315 74.67283805 -150.02188206 65.72321685 -149 58 C-146.87162725 50.02883476 -141.59168967 44.71158574 -135 40 C-127.86634384 35.90738451 -119.80235758 34.98382529 -111.76953125 36.390625 C-105.9223197 38.00507633 -101.87772889 41.1833382 -97.296875 45.07421875 C-95.43141799 46.63828389 -93.62298218 47.96984894 -91.5625 49.25 C-87.02403014 52.34944283 -85.30044193 55.6981983 -84 61 C-83.13053262 66.42138486 -83.67993006 70.12505884 -86.625 74.8125 C-91.71059538 81.61300545 -97.86222193 84.28353391 -106 86 C-113.88388079 87.11475657 -120.85405754 84.96540292 -127.3046875 80.3515625 C-135.58043423 73.40963576 -135.58043423 73.40963576 -136.30859375 67.4921875 C-136.53975667 62.35056378 -136.39074868 57.92657293 -133.48046875 53.56640625 C-129.99376206 49.87730498 -125.51404011 47.25702005 -121 45 C-126.55061051 45.1384506 -131.03131681 45.72579736 -135.42578125 49.30078125 C-139.95356883 54.18809539 -142.27465164 59.87566037 -142.6875 66.5 C-142.33572807 73.79409434 -138.67494742 79.2527567 -133.6875 84.375 C-132.800625 84.91125 -131.91375 85.4475 -131 86 C-130.41089844 86.36867188 -129.82179688 86.73734375 -129.21484375 87.1171875 C-118.71271833 92.80992838 -106.4752709 90.4322167 -95.53515625 87.22265625 C-91.23418802 85.73513906 -87.14900304 83.97529 -83.07421875 81.953125 C-81 81 -81 81 -79 81 C-78.09054997 61.55040473 -78.09054997 61.55040473 -86.375 44.4375 C-91.19153514 39.31279792 -96.7026798 36.52507973 -103.3125 34.3125 C-109.91640379 32.08359621 -109.91640379 32.08359621 -111 31 C-111.04063832 29.33382885 -111.042721 27.66611905 -111 26 C-27.16575149 -20.52420953 -27.16575149 -20.52420953 0 0 Z " fill="#303030" transform="translate(254,58)"/>
<path d="M0 0 C0.33 0 0.66 0 1 0 C1 1.65 1 3.3 1 5 C1.95922363 5.23581787 2.91844727 5.47163574 3.90673828 5.71459961 C11.08084263 7.48795134 18.23716061 9.31038319 25.3671875 11.25390625 C46.95992718 17.16736406 46.95992718 17.16736406 69 21 C69.73573242 21.0928125 70.47146484 21.185625 71.22949219 21.28125 C73.15264278 21.52364272 75.07627749 21.76218883 77 22 C72.62714194 26.70440672 67.66057453 30.38547941 62.5 34.1875 C60.69096075 35.53195285 58.88236662 36.87700483 57.07421875 38.22265625 C55.76203369 39.1974292 55.76203369 39.1974292 54.42333984 40.19189453 C51.36373756 42.47472896 48.33441927 44.79249197 45.3125 47.125 C44.31089844 47.89714844 43.30929687 48.66929687 42.27734375 49.46484375 C40.50952858 50.83050714 38.74409097 52.19909537 36.98095703 53.57080078 C7.6955488 76.34246831 7.6955488 76.34246831 -6.171875 75.8984375 C-9.18405047 75.43802726 -12.05643821 74.78359645 -15 74 C-16.23169922 73.73509766 -16.23169922 73.73509766 -17.48828125 73.46484375 C-35.5558736 69.22190993 -52.03359094 60.14198293 -68 51 C-65 49 -65 49 -63.08984375 48.09765625 C-55.38901637 44.39399154 -49.05340416 38.21965477 -44.72949219 30.828125 C-40.80698081 24.17510217 -36.60021336 21.58334225 -29.625 18.5 C-27.66239371 17.58037596 -25.70146703 16.65715939 -23.7421875 15.73046875 C-22.77506836 15.27849121 -21.80794922 14.82651367 -20.81152344 14.36083984 C-15.98779837 12.02604968 -11.3708379 9.34702329 -6.74853516 6.640625 C-2.19199543 4 -2.19199543 4 0 4 C0 2.68 0 1.36 0 0 Z " fill="#8F8F8F" transform="translate(238,119)"/>
<path d="M0 0 C0.82113281 -0.02900391 1.64226562 -0.05800781 2.48828125 -0.08789062 C9.53748945 -0.16050529 14.33631865 1.77489616 19.95703125 5.953125 C25.45772528 11.46720271 27.78443123 16.51720751 28.25 24.3125 C28.03102721 29.8205079 26.31703017 33.19054395 22.75 37.3125 C16.25586987 43.1359422 9.11280965 47.82089401 1.625 52.25 C0.57691162 52.87463135 -0.47117676 53.4992627 -1.55102539 54.14282227 C-10.79901109 59.58727124 -20.21537463 64.70764536 -29.6875 69.75 C-30.40093567 70.13074677 -31.11437134 70.51149353 -31.84942627 70.90377808 C-33.8745955 71.98179258 -35.90319428 73.05296853 -37.93359375 74.12109375 C-38.54390945 74.44533325 -39.15422516 74.76957275 -39.78303528 75.1036377 C-44.01743588 77.3125 -44.01743588 77.3125 -46.25 77.3125 C-46.28738281 76.36890625 -46.32476562 75.4253125 -46.36328125 74.453125 C-47.03174265 61.39846713 -48.52115081 49.70960416 -57.25 39.3125 C-60.0692862 36.91660484 -63.00980971 35.08350032 -66.25 33.3125 C-67.30380859 32.69568359 -67.30380859 32.69568359 -68.37890625 32.06640625 C-69.98969342 31.12596687 -71.61786527 30.21538304 -73.25 29.3125 C-69.5219875 26.1069741 -65.65319816 23.81429015 -61.25 21.6875 C-60.21818604 21.18307373 -60.21818604 21.18307373 -59.16552734 20.66845703 C-57.66351121 19.93624496 -56.16002904 19.20703435 -54.65527344 18.48046875 C-52.14978942 17.26383908 -49.65695694 16.02344957 -47.1640625 14.78125 C-32.25488318 7.42841767 -16.85720549 0.19480592 0 0 Z " fill="#8F8F8F" transform="translate(229.25,56.6875)"/>
<path d="M0 0 C6.3505199 -0.55221912 11.39095083 0.97974275 17 4 C19.4375 6.4375 19.4375 6.4375 21 9 C21.5775 9.70125 22.155 10.4025 22.75 11.125 C24.72770841 15.67372934 24.66009817 20.12260799 24 25 C21.68385859 29.20336775 19.45439791 30.51945514 15 32 C10.28123855 32.60334097 5.26568239 33.08886769 0.88671875 30.984375 C-0.75 29.6875 -0.75 29.6875 -3 27 C-3 26.01 -3 25.02 -3 24 C-4.98 24 -6.96 24 -9 24 C-7.98311177 30.2127597 -7.98311177 30.2127597 -4.125 34.9375 C2.27152304 39.15920521 9.54176653 38.59232055 17 38 C21.80928509 36.71311179 24.34382318 34.82442729 27.4375 30.9375 C30.86128003 24.50079354 30.90901119 17.57111539 29.125 10.5625 C28.14651987 8.33373971 27.15405366 6.14324251 26 4 C31.48313219 5.27514702 33.81535017 7.39995024 37 12 C39.24237379 16.80508669 39.97834599 21.7821547 39 27 C35.89020357 33.69142405 31.6388081 38.17619511 24.71484375 40.8984375 C15.9993446 43.83503536 8.92287793 44.06659124 0.4296875 40.3359375 C-4.94639596 37.37995592 -10.85800353 32.89049028 -13 27 C-13.71792784 21.16570032 -13.8323731 15.58821241 -10.48046875 10.56640625 C-6.99376206 6.87730498 -2.51404011 4.25702005 2 2 C1.34 1.34 0.68 0.68 0 0 Z " fill="#8E8E8E" transform="translate(131,101)"/>
<path d="M0 0 C0.75410156 0.00322266 1.50820312 0.00644531 2.28515625 0.00976562 C3.06246094 0.01814453 3.83976562 0.02652344 4.640625 0.03515625 C5.43339844 0.03966797 6.22617188 0.04417969 7.04296875 0.04882812 C8.99222008 0.0605706 10.94143238 0.07850479 12.890625 0.09765625 C12.560625 0.75765625 12.230625 1.41765625 11.890625 2.09765625 C9.43202812 2.71383065 6.99967849 3.23292013 4.515625 3.72265625 C-12.36811016 7.43746902 -27.54610281 15.65140459 -42.85473633 23.43701172 C-44.01126709 24.02498535 -45.16779785 24.61295898 -46.359375 25.21875 C-47.39578125 25.74911865 -48.4321875 26.2794873 -49.5 26.82592773 C-52.109375 28.09765625 -52.109375 28.09765625 -55.109375 29.09765625 C-55.109375 29.75765625 -55.109375 30.41765625 -55.109375 31.09765625 C-53.9028125 31.40703125 -53.9028125 31.40703125 -52.671875 31.72265625 C-42.6510785 35.59033209 -36.38442058 41.96743104 -31.859375 51.59765625 C-29.19248175 58.06487239 -27.81715983 64.08449228 -28.109375 71.09765625 C-29.89819236 72.10274426 -31.69052196 73.10158361 -33.484375 74.09765625 C-34.48210937 74.65453125 -35.47984375 75.21140625 -36.5078125 75.78515625 C-39.109375 77.09765625 -39.109375 77.09765625 -41.109375 77.09765625 C-41.14675781 76.1540625 -41.18414062 75.21046875 -41.22265625 74.23828125 C-41.89111765 61.18362338 -43.38052581 49.49476041 -52.109375 39.09765625 C-54.9286612 36.70176109 -57.86918471 34.86865657 -61.109375 33.09765625 C-62.16318359 32.48083984 -62.16318359 32.48083984 -63.23828125 31.8515625 C-64.84906842 30.91112312 -66.47724027 30.00053929 -68.109375 29.09765625 C-64.3813625 25.89213035 -60.51257316 23.5994464 -56.109375 21.47265625 C-55.07756104 20.96822998 -55.07756104 20.96822998 -54.02490234 20.45361328 C-52.52288621 19.72140121 -51.01940404 18.9921906 -49.51464844 18.265625 C-47.00916442 17.04899533 -44.51633194 15.80860582 -42.0234375 14.56640625 C-12.29852995 -0.09317068 -12.29852995 -0.09317068 0 0 Z " fill="#F5F5F5" transform="translate(224.109375,56.90234375)"/>
<path d="M0 0 C2.31 0 4.62 0 7 0 C7.50643553 2.22771342 8.0048962 4.45724076 8.5 6.6875 C8.7784375 7.92886719 9.056875 9.17023438 9.34375 10.44921875 C9.89354126 13.42398218 10.13795705 15.99368602 10 19 C10.66 19 11.32 19 12 19 C12.12117187 18.13117188 12.24234375 17.26234375 12.3671875 16.3671875 C12.61855469 14.63855469 12.61855469 14.63855469 12.875 12.875 C13.03742188 11.73804688 13.19984375 10.60109375 13.3671875 9.4296875 C13.97431417 6.13921085 14.86345633 3.14220897 16 0 C17.98 0 19.96 0 22 0 C22 12.87 22 25.74 22 39 C19.525 39.495 19.525 39.495 17 40 C16.34 38.68 15.68 37.36 15 36 C14.34 37.32 13.68 38.64 13 40 C11.5459375 39.7215625 11.5459375 39.7215625 10.0625 39.4375 C9.051875 39.293125 8.04125 39.14875 7 39 C6.505 39.495 6.505 39.495 6 40 C3.5 40.125 3.5 40.125 1 40 C0 39 0 39 -0.11352539 35.30639648 C-0.11336624 33.66128708 -0.10766988 32.01617269 -0.09765625 30.37109375 C-0.0962413 29.50686295 -0.09482635 28.64263214 -0.09336853 27.75221252 C-0.08775239 24.98060708 -0.07519719 22.2090812 -0.0625 19.4375 C-0.05748708 17.5631522 -0.05292381 15.68880315 -0.04882812 13.81445312 C-0.03777772 9.20960456 -0.0205023 4.60481579 0 0 Z " fill="#353535" transform="translate(239,230)"/>
<path d="M0 0 C0.72058594 -0.01289063 1.44117188 -0.02578125 2.18359375 -0.0390625 C5.93115296 1.00705419 8.48826867 2.34111184 10.5625 5.625 C11.41803537 10.11742819 11.30802618 14.5042 11.1875 19.0625 C11.19394531 20.27744141 11.20039063 21.49238281 11.20703125 22.74414062 C11.07322922 33.84362702 11.07322922 33.84362702 6.5625 38.625 C2.81202518 41.12531654 1.00393734 41.16103554 -3.4375 40.625 C-6.06766161 38.4522578 -7.91086894 36.67826212 -9.4375 33.625 C-9.76376833 29.0270945 -9.76208885 24.42053775 -9.8125 19.8125 C-9.86857422 17.88567383 -9.86857422 17.88567383 -9.92578125 15.91992188 C-9.93738281 14.68177734 -9.94898438 13.44363281 -9.9609375 12.16796875 C-9.98075684 11.03383545 -10.00057617 9.89970215 -10.02099609 8.73120117 C-9.03319266 3.47269779 -5.46875351 -0.09748224 0 0 Z " fill="#3C3C3C" transform="translate(287.4375,229.375)"/>
<path d="M0 0 C2.06132142 -0.10864945 4.12431321 -0.18588321 6.1875 -0.25 C7.33605469 -0.29640625 8.48460937 -0.3428125 9.66796875 -0.390625 C13.63979862 0.0750057 15.18771485 1.22370387 18 4 C20.15151494 8.30302988 19.31876458 13.9611684 19.375 18.6875 C19.41238281 19.85990234 19.44976562 21.03230469 19.48828125 22.24023438 C19.56220764 29.51376975 19.16968198 33.70145498 14 39 C11.02119115 39.99293628 8.98398802 40.13406411 5.875 40.125 C4.98554688 40.12757813 4.09609375 40.13015625 3.1796875 40.1328125 C1 40 1 40 0 39 C-0.08865208 36.1156618 -0.11521296 33.25537842 -0.09765625 30.37109375 C-0.0962413 29.50686295 -0.09482635 28.64263214 -0.09336853 27.75221252 C-0.08775239 24.98060708 -0.07519719 22.2090812 -0.0625 19.4375 C-0.05748708 17.5631522 -0.05292381 15.68880315 -0.04882812 13.81445312 C-0.03777772 9.20960456 -0.0205023 4.60481579 0 0 Z " fill="#3B3B3B" transform="translate(315,230)"/>
<path d="M0 0 C2.25 0.125 2.25 0.125 5 1 C7.87701732 4.5163545 9.46799297 7.47794021 10 12 C12.35785318 11.10664203 12.35785318 11.10664203 13.125 7.9375 C13.41375 6.968125 13.7025 5.99875 14 5 C14.66 5 15.32 5 16 5 C16.33 3.35 16.66 1.7 17 0 C18.65 0 20.3 0 22 0 C23.18107357 3.48777573 23.05502248 3.88358128 21.34765625 7.49609375 C20.59777198 8.8166864 19.83555418 10.13033566 19.0625 11.4375 C15.46036765 17.28283166 15.46036765 17.28283166 15 24 C15.66 24 16.32 24 17 24 C17.26554687 24.60328125 17.53109375 25.2065625 17.8046875 25.828125 C18.15789062 26.62734375 18.51109375 27.4265625 18.875 28.25 C19.22304687 29.03890625 19.57109375 29.8278125 19.9296875 30.640625 C20.62300471 32.16895928 21.36315368 33.67723254 22.15625 35.15625 C23.22469292 37.49099563 22.84574898 38.63190285 22 41 C20.35 41 18.7 41 17 41 C16.51080078 39.93458984 16.51080078 39.93458984 16.01171875 38.84765625 C15.57472656 37.92855469 15.13773438 37.00945312 14.6875 36.0625 C14.25824219 35.14597656 13.82898438 34.22945313 13.38671875 33.28515625 C12.14921339 30.69030588 12.14921339 30.69030588 9 30 C8.34 32.64 7.68 35.28 7 38 C6.34 38 5.68 38 5 38 C4.67 38.99 4.34 39.98 4 41 C2.68 41 1.36 41 0 41 C-0.58729663 35.55977854 2.02021598 31.71860233 4.59960938 27.171875 C6.02825273 24.51661867 7.01207601 22.5208786 6.94140625 19.47265625 C5.26237613 15.0625896 2.77497117 11.12124518 0.3984375 7.05859375 C-1 4 -1 4 -0.7109375 1.59765625 C-0.47632813 1.07042969 -0.24171875 0.54320312 0 0 Z " fill="#404040" transform="translate(136,229)"/>
<path d="M0 0 C1.12535156 0.00580078 1.12535156 0.00580078 2.2734375 0.01171875 C3.02367187 0.00785156 3.77390625 0.00398437 4.546875 0 C10.14682697 0.01010822 10.14682697 0.01010822 11.2734375 1.13671875 C11.3984375 3.63671875 11.3984375 3.63671875 11.2734375 6.13671875 C10.2734375 7.13671875 10.2734375 7.13671875 7.98828125 7.234375 C5.41666667 7.20182292 2.84505208 7.16927083 0.2734375 7.13671875 C0.2734375 10.43671875 0.2734375 13.73671875 0.2734375 17.13671875 C1.5728125 17.11609375 2.8721875 17.09546875 4.2109375 17.07421875 C5.56509383 17.05272421 6.92099833 17.06523676 8.2734375 17.13671875 C9.2734375 18.13671875 9.2734375 18.13671875 9.2734375 23.13671875 C5.9734375 23.13671875 2.6734375 23.13671875 -0.7265625 23.13671875 C-0.7265625 27.09671875 -0.7265625 31.05671875 -0.7265625 35.13671875 C2.9034375 35.13671875 6.5334375 35.13671875 10.2734375 35.13671875 C10.2734375 37.11671875 10.2734375 39.09671875 10.2734375 41.13671875 C7.62753736 41.16356554 4.98190654 41.18348232 2.3359375 41.19921875 C1.58119141 41.20759766 0.82644531 41.21597656 0.04882812 41.22460938 C-1.87650563 41.23324316 -3.80191831 41.18896208 -5.7265625 41.13671875 C-7.59618968 39.26709157 -6.85542553 36.59008314 -6.86550903 34.10290527 C-6.8634848 33.25812622 -6.86146057 32.41334717 -6.859375 31.54296875 C-6.86033173 30.68110962 -6.86128845 29.81925049 -6.86227417 28.93127441 C-6.862956 27.10538663 -6.86110154 25.27949644 -6.85693359 23.45361328 C-6.85158536 20.64870797 -6.85687849 17.8439628 -6.86328125 15.0390625 C-6.86262047 13.26953089 -6.86133931 11.49999939 -6.859375 9.73046875 C-6.86139923 8.8856897 -6.86342346 8.04091064 -6.86550903 7.17053223 C-6.83648833 0.01234023 -6.83648833 0.01234023 0 0 Z " fill="#2C2C2C" transform="translate(356.7265625,228.86328125)"/>
<path d="M0 0 C1.12535156 0.00580078 1.12535156 0.00580078 2.2734375 0.01171875 C3.02367187 0.00785156 3.77390625 0.00398437 4.546875 0 C10.14682697 0.01010822 10.14682697 0.01010822 11.2734375 1.13671875 C11.3984375 3.63671875 11.3984375 3.63671875 11.2734375 6.13671875 C10.2734375 7.13671875 10.2734375 7.13671875 7.98828125 7.234375 C5.41666667 7.20182292 2.84505208 7.16927083 0.2734375 7.13671875 C0.2734375 10.43671875 0.2734375 13.73671875 0.2734375 17.13671875 C1.5728125 17.11609375 2.8721875 17.09546875 4.2109375 17.07421875 C5.56509383 17.05272421 6.92099833 17.06523676 8.2734375 17.13671875 C9.2734375 18.13671875 9.2734375 18.13671875 9.2734375 23.13671875 C5.9734375 23.13671875 2.6734375 23.13671875 -0.7265625 23.13671875 C-0.7265625 27.09671875 -0.7265625 31.05671875 -0.7265625 35.13671875 C2.9034375 35.13671875 6.5334375 35.13671875 10.2734375 35.13671875 C10.2734375 37.11671875 10.2734375 39.09671875 10.2734375 41.13671875 C7.62753736 41.16356554 4.98190654 41.18348232 2.3359375 41.19921875 C1.58119141 41.20759766 0.82644531 41.21597656 0.04882812 41.22460938 C-1.87650563 41.23324316 -3.80191831 41.18896208 -5.7265625 41.13671875 C-7.59618968 39.26709157 -6.85542553 36.59008314 -6.86550903 34.10290527 C-6.8634848 33.25812622 -6.86146057 32.41334717 -6.859375 31.54296875 C-6.86033173 30.68110962 -6.86128845 29.81925049 -6.86227417 28.93127441 C-6.862956 27.10538663 -6.86110154 25.27949644 -6.85693359 23.45361328 C-6.85158536 20.64870797 -6.85687849 17.8439628 -6.86328125 15.0390625 C-6.86262047 13.26953089 -6.86133931 11.49999939 -6.859375 9.73046875 C-6.86139923 8.8856897 -6.86342346 8.04091064 -6.86550903 7.17053223 C-6.83648833 0.01234023 -6.83648833 0.01234023 0 0 Z " fill="#2C2C2C" transform="translate(180.7265625,228.86328125)"/>
<path d="M0 0 C1.12535156 0.00580078 1.12535156 0.00580078 2.2734375 0.01171875 C3.02367188 0.00785156 3.77390625 0.00398437 4.546875 0 C10.14682697 0.01010822 10.14682697 0.01010822 11.2734375 1.13671875 C11.2734375 2.78671875 11.2734375 4.43671875 11.2734375 6.13671875 C7.3134375 6.13671875 3.3534375 6.13671875 -0.7265625 6.13671875 C-0.7265625 10.09671875 -0.7265625 14.05671875 -0.7265625 18.13671875 C2.5734375 18.13671875 5.8734375 18.13671875 9.2734375 18.13671875 C9.2734375 19.78671875 9.2734375 21.43671875 9.2734375 23.13671875 C8.2734375 24.13671875 8.2734375 24.13671875 6.42578125 24.234375 C4.375 24.20182292 2.32421875 24.16927083 0.2734375 24.13671875 C0.2734375 27.76671875 0.2734375 31.39671875 0.2734375 35.13671875 C3.5734375 35.13671875 6.8734375 35.13671875 10.2734375 35.13671875 C10.65562517 36.79286532 10.98738852 38.46128899 11.2734375 40.13671875 C9.45227747 41.95787878 6.96671986 41.26906955 4.546875 41.2734375 C3.79664062 41.26957031 3.04640625 41.26570313 2.2734375 41.26171875 C1.14808594 41.26751953 1.14808594 41.26751953 0 41.2734375 C-5.59995197 41.26332928 -5.59995197 41.26332928 -6.7265625 40.13671875 C-6.82763124 37.26407819 -6.86625922 34.41598247 -6.859375 31.54296875 C-6.86033173 30.68110962 -6.86128845 29.81925049 -6.86227417 28.93127441 C-6.862956 27.10538663 -6.86110154 25.27949644 -6.85693359 23.45361328 C-6.85158536 20.64870797 -6.85687849 17.8439628 -6.86328125 15.0390625 C-6.86262047 13.26953089 -6.86133931 11.49999939 -6.859375 9.73046875 C-6.86139923 8.8856897 -6.86342346 8.04091064 -6.86550903 7.17053223 C-6.83648833 0.01234023 -6.83648833 0.01234023 0 0 Z " fill="#434343" transform="translate(108.7265625,228.86328125)"/>
<path d="M0 0 C1.18613892 0.00785522 1.18613892 0.00785522 2.39624023 0.01586914 C3.67724609 0.02070313 3.67724609 0.02070313 4.98413086 0.02563477 C5.88196289 0.03401367 6.77979492 0.04239258 7.70483398 0.05102539 C8.6065332 0.05553711 9.50823242 0.06004883 10.43725586 0.06469727 C12.67234712 0.07652315 14.90730835 0.09300319 17.14233398 0.11352539 C17.52452166 1.76967196 17.856285 3.43809563 18.14233398 5.11352539 C17.14233398 6.11352539 17.14233398 6.11352539 14.07983398 6.17602539 C13.11045898 6.15540039 12.14108398 6.13477539 11.14233398 6.11352539 C11.1475708 7.10795654 11.15280762 8.1023877 11.15820312 9.12695312 C11.1762544 12.8038646 11.18776644 16.48077214 11.19726562 20.15771484 C11.20230556 21.75147154 11.20913748 23.34522358 11.21777344 24.93896484 C11.22985397 27.22502792 11.23556554 29.51103006 11.23999023 31.79711914 C11.24515152 32.51379257 11.25031281 33.230466 11.25563049 33.96885681 C11.25582661 35.68416211 11.20425406 37.39933805 11.14233398 39.11352539 C10.14233398 40.11352539 10.14233398 40.11352539 7.64233398 40.23852539 C5.14233398 40.11352539 5.14233398 40.11352539 4.14233398 39.11352539 C4.05389605 36.66522113 4.02704647 34.2453194 4.04467773 31.79711914 C4.04609268 31.06606461 4.04750763 30.33501007 4.04896545 29.58180237 C4.0545799 27.23816907 4.06713477 24.89463 4.07983398 22.55102539 C4.08484713 20.96574031 4.08941036 19.38045373 4.09350586 17.79516602 C4.10455402 13.90124929 4.12182827 10.00740334 4.14233398 6.11352539 C2.16233398 6.11352539 0.18233398 6.11352539 -1.85766602 6.11352539 C-2.23985369 4.45737882 -2.57161703 2.78895515 -2.85766602 1.11352539 C-1.85766602 0.11352539 -1.85766602 0.11352539 0 0 Z " fill="#474747" transform="translate(68.857666015625,228.886474609375)"/>
<path d="M0 0 C1.98 0 3.96 0 6 0 C6 11.22 6 22.44 6 34 C9.63 34 13.26 34 17 34 C17 35.65 17 37.3 17 39 C15.24440058 40.75559942 12.96417558 40.13221919 10.62890625 40.13671875 C9.92636719 40.13285156 9.22382813 40.12898438 8.5 40.125 C7.79746094 40.12886719 7.09492188 40.13273437 6.37109375 40.13671875 C1.12661378 40.12661378 1.12661378 40.12661378 0 39 C-0.08865208 36.1156618 -0.11521296 33.25537842 -0.09765625 30.37109375 C-0.0962413 29.50686295 -0.09482635 28.64263214 -0.09336853 27.75221252 C-0.08775239 24.98060708 -0.07519719 22.2090812 -0.0625 19.4375 C-0.05748708 17.5631522 -0.05292381 15.68880315 -0.04882812 13.81445312 C-0.03777772 9.20960456 -0.0205023 4.60481579 0 0 Z " fill="#3B3B3B" transform="translate(207,230)"/>
<path d="M0 0 C0.99 0.33 1.98 0.66 3 1 C1.88024077 4.35927769 1.26397398 4.80914756 -1.515625 6.79296875 C-2.63445068 7.60229858 -2.63445068 7.60229858 -3.77587891 8.42797852 C-4.59233887 9.00862061 -5.40879883 9.5892627 -6.25 10.1875 C-7.99333515 11.44893628 -9.73548006 12.71201876 -11.4765625 13.9765625 C-12.38567383 14.6355957 -13.29478516 15.29462891 -14.23144531 15.97363281 C-18.74264026 19.27547744 -23.18452367 22.66645523 -27.625 26.0625 C-28.49898438 26.72894531 -29.37296875 27.39539063 -30.2734375 28.08203125 C-34.46013956 31.27812969 -38.63452909 34.48874903 -42.7890625 37.7265625 C-43.54364746 38.31171631 -44.29823242 38.89687012 -45.07568359 39.49975586 C-46.46555733 40.57860126 -47.85169314 41.66229086 -49.23291016 42.75219727 C-54.86469622 47.11621885 -60.92275371 51.51975905 -68 53 C-64.04696046 48.83203792 -59.77350169 45.38640738 -55.1875 41.9375 C-54.06698242 41.08768555 -54.06698242 41.08768555 -52.92382812 40.22070312 C-47.30828269 35.96764891 -41.66980466 31.7448539 -36.02880859 27.52563477 C-31.10150369 23.8371224 -26.20134767 20.11430485 -21.3125 16.375 C-20.25458252 15.56844971 -20.25458252 15.56844971 -19.17529297 14.74560547 C-15.80426933 12.17052885 -12.45439192 9.57522733 -9.14453125 6.921875 C-8.54793701 6.44830566 -7.95134277 5.97473633 -7.33666992 5.48681641 C-5.7314417 4.20968575 -4.13492704 2.92162463 -2.5390625 1.6328125 C-1.70117188 1.09398437 -0.86328125 0.55515625 0 0 Z " fill="#8B8B8B" transform="translate(329,139)"/>
<path d="M0 0 C3 0.125 3 0.125 4 1.125 C4.08748207 3.05167507 4.10697334 4.98151861 4.09765625 6.91015625 C4.09443359 8.07998047 4.09121094 9.24980469 4.08789062 10.45507812 C4.07951172 11.68677734 4.07113281 12.91847656 4.0625 14.1875 C4.05798828 15.42306641 4.05347656 16.65863281 4.04882812 17.93164062 C4.03699608 20.99614117 4.02051173 24.06054721 4 27.125 C2.02 27.455 0.04 27.785 -2 28.125 C-4.25459011 24.74311483 -4.2470098 23.57601171 -4.23046875 19.6171875 C-4.22853516 18.54855469 -4.22660156 17.47992188 -4.22460938 16.37890625 C-4.20624023 14.70634766 -4.20624023 14.70634766 -4.1875 13 C-4.18685547 11.87722656 -4.18621094 10.75445312 -4.18554688 9.59765625 C-4.13425996 0.17226083 -4.13425996 0.17226083 0 0 Z " fill="#E9E9E9" transform="translate(288,235.875)"/>
<path d="M0 0 C2.31 0.33 4.62 0.66 7 1 C7.08696177 4.93736123 7.14037835 8.87447628 7.1875 12.8125 C7.21263672 13.93205078 7.23777344 15.05160156 7.26367188 16.20507812 C7.27333984 17.27822266 7.28300781 18.35136719 7.29296875 19.45703125 C7.31653442 20.9416687 7.31653442 20.9416687 7.34057617 22.45629883 C7 25 7 25 5.73168945 26.84643555 C4 28 4 28 0 28 C0 18.76 0 9.52 0 0 Z " fill="#EAEAEA" transform="translate(321,236)"/>
<path d="M0 0 C5.54908744 3.27900621 8.89838663 6.69515989 11 13 C11.17136752 15.07888471 11.26642661 17.16457301 11.3125 19.25 C11.34988281 20.34828125 11.38726562 21.4465625 11.42578125 22.578125 C10.70143489 28.39947739 8.20191574 32.23550565 3.765625 35.87109375 C2.60333783 36.73954428 1.4312615 37.59503987 0.25 38.4375 C-0.35199219 38.88287109 -0.95398438 39.32824219 -1.57421875 39.78710938 C-3.0409633 40.86970654 -4.51930974 41.93655627 -6 43 C-6.66 42.67 -7.32 42.34 -8 42 C-7.22076172 41.41605469 -7.22076172 41.41605469 -6.42578125 40.8203125 C-0.03612839 35.69441723 4.20642761 30.31623273 5.44140625 22.04296875 C5.72669069 14.87404676 4.03109166 9.41520203 1 3 C0.67 2.01 0.34 1.02 0 0 Z " fill="#8B8B8B" transform="translate(258,62)"/>
<path d="M0 0 C1.12535156 0.00580078 1.12535156 0.00580078 2.2734375 0.01171875 C3.02367187 0.00785156 3.77390625 0.00398437 4.546875 0 C10.14682697 0.01010822 10.14682697 0.01010822 11.2734375 1.13671875 C11.3984375 3.63671875 11.3984375 3.63671875 11.2734375 6.13671875 C10.2734375 7.13671875 10.2734375 7.13671875 7.98828125 7.234375 C5.41666667 7.20182292 2.84505208 7.16927083 0.2734375 7.13671875 C0.2734375 10.43671875 0.2734375 13.73671875 0.2734375 17.13671875 C2.9134375 17.13671875 5.5534375 17.13671875 8.2734375 17.13671875 C8.2734375 17.46671875 8.2734375 17.79671875 8.2734375 18.13671875 C5.3034375 18.13671875 2.3334375 18.13671875 -0.7265625 18.13671875 C-0.7265625 13.84671875 -0.7265625 9.55671875 -0.7265625 5.13671875 C2.5734375 5.13671875 5.8734375 5.13671875 9.2734375 5.13671875 C9.2734375 3.81671875 9.2734375 2.49671875 9.2734375 1.13671875 C4.6534375 1.13671875 0.0334375 1.13671875 -4.7265625 1.13671875 C-4.7265625 14.00671875 -4.7265625 26.87671875 -4.7265625 40.13671875 C0.2234375 40.13671875 5.1734375 40.13671875 10.2734375 40.13671875 C10.2734375 40.46671875 10.2734375 40.79671875 10.2734375 41.13671875 C7.62753736 41.16356554 4.98190654 41.18348232 2.3359375 41.19921875 C1.58119141 41.20759766 0.82644531 41.21597656 0.04882812 41.22460938 C-1.87650563 41.23324316 -3.80191831 41.18896208 -5.7265625 41.13671875 C-7.59618968 39.26709157 -6.85542553 36.59008314 -6.86550903 34.10290527 C-6.8634848 33.25812622 -6.86146057 32.41334717 -6.859375 31.54296875 C-6.86033173 30.68110962 -6.86128845 29.81925049 -6.86227417 28.93127441 C-6.862956 27.10538663 -6.86110154 25.27949644 -6.85693359 23.45361328 C-6.85158536 20.64870797 -6.85687849 17.8439628 -6.86328125 15.0390625 C-6.86262047 13.26953089 -6.86133931 11.49999939 -6.859375 9.73046875 C-6.86139923 8.8856897 -6.86342346 8.04091064 -6.86550903 7.17053223 C-6.83648833 0.01234023 -6.83648833 0.01234023 0 0 Z " fill="#626262" transform="translate(356.7265625,228.86328125)"/>
<path d="M0 0 C1.12535156 0.00580078 1.12535156 0.00580078 2.2734375 0.01171875 C3.02367187 0.00785156 3.77390625 0.00398437 4.546875 0 C10.14682697 0.01010822 10.14682697 0.01010822 11.2734375 1.13671875 C11.3984375 3.63671875 11.3984375 3.63671875 11.2734375 6.13671875 C10.2734375 7.13671875 10.2734375 7.13671875 7.98828125 7.234375 C5.41666667 7.20182292 2.84505208 7.16927083 0.2734375 7.13671875 C0.2734375 10.43671875 0.2734375 13.73671875 0.2734375 17.13671875 C2.9134375 17.13671875 5.5534375 17.13671875 8.2734375 17.13671875 C8.2734375 17.46671875 8.2734375 17.79671875 8.2734375 18.13671875 C5.3034375 18.13671875 2.3334375 18.13671875 -0.7265625 18.13671875 C-0.7265625 13.84671875 -0.7265625 9.55671875 -0.7265625 5.13671875 C2.5734375 5.13671875 5.8734375 5.13671875 9.2734375 5.13671875 C9.2734375 3.81671875 9.2734375 2.49671875 9.2734375 1.13671875 C4.6534375 1.13671875 0.0334375 1.13671875 -4.7265625 1.13671875 C-4.7265625 14.00671875 -4.7265625 26.87671875 -4.7265625 40.13671875 C0.2234375 40.13671875 5.1734375 40.13671875 10.2734375 40.13671875 C10.2734375 40.46671875 10.2734375 40.79671875 10.2734375 41.13671875 C7.62753736 41.16356554 4.98190654 41.18348232 2.3359375 41.19921875 C1.58119141 41.20759766 0.82644531 41.21597656 0.04882812 41.22460938 C-1.87650563 41.23324316 -3.80191831 41.18896208 -5.7265625 41.13671875 C-7.59618968 39.26709157 -6.85542553 36.59008314 -6.86550903 34.10290527 C-6.8634848 33.25812622 -6.86146057 32.41334717 -6.859375 31.54296875 C-6.86033173 30.68110962 -6.86128845 29.81925049 -6.86227417 28.93127441 C-6.862956 27.10538663 -6.86110154 25.27949644 -6.85693359 23.45361328 C-6.85158536 20.64870797 -6.85687849 17.8439628 -6.86328125 15.0390625 C-6.86262047 13.26953089 -6.86133931 11.49999939 -6.859375 9.73046875 C-6.86139923 8.8856897 -6.86342346 8.04091064 -6.86550903 7.17053223 C-6.83648833 0.01234023 -6.83648833 0.01234023 0 0 Z " fill="#626262" transform="translate(180.7265625,228.86328125)"/>
<path d="M0 0 C0.66 0 1.32 0 2 0 C2 12.87 2 25.74 2 39 C2.99 39 3.98 39 5 39 C5 34.71 5 30.42 5 26 C5.99 26 6.98 26 8 26 C7.85970581 28.1462026 7.71261836 30.29196218 7.5625 32.4375 C7.48128906 33.63246094 7.40007812 34.82742188 7.31640625 36.05859375 C7 39 7 39 6 40 C3.5 40.125 3.5 40.125 1 40 C0 39 0 39 -0.11352539 35.30639648 C-0.11336624 33.66128708 -0.10766988 32.01617269 -0.09765625 30.37109375 C-0.0962413 29.50686295 -0.09482635 28.64263214 -0.09336853 27.75221252 C-0.08775239 24.98060708 -0.07519719 22.2090812 -0.0625 19.4375 C-0.05748708 17.5631522 -0.05292381 15.68880315 -0.04882812 13.81445312 C-0.03777772 9.20960456 -0.0205023 4.60481579 0 0 Z " fill="#707070" transform="translate(239,230)"/>
<path d="M0 0 C0.99 0.33 1.98 0.66 3 1 C1.47364283 5.5790715 -2.09135665 7.4336533 -5.875 10.25 C-6.60847656 10.8171875 -7.34195312 11.384375 -8.09765625 11.96875 C-8.80535156 12.49984375 -9.51304687 13.0309375 -10.2421875 13.578125 C-10.8904248 14.06700195 -11.53866211 14.55587891 -12.20654297 15.05957031 C-12.79838379 15.36991211 -13.39022461 15.68025391 -14 16 C-14.99 15.67 -15.98 15.34 -17 15 C-13.18778397 9.741771 -8.62907487 6.35730522 -3.328125 2.63671875 C-1.14256895 1.19983286 -1.14256895 1.19983286 0 0 Z " fill="#8C8C8C" transform="translate(329,139)"/>
<path d="M0 0 C2.64590014 -0.02684679 5.29153096 -0.04676357 7.9375 -0.0625 C8.69224609 -0.07087891 9.44699219 -0.07925781 10.22460938 -0.08789062 C12.14994313 -0.09652441 14.07535581 -0.05224333 16 0 C17 1 17 1 17.125 3.5 C17 6 17 6 16 7 C12.66381769 7.14257189 9.34024394 7.04228157 6 7 C6 10.3 6 13.6 6 17 C8.64 17 11.28 17 14 17 C14 17.33 14 17.66 14 18 C11.03 18 8.06 18 5 18 C5 13.71 5 9.42 5 5 C8.3 5 11.6 5 15 5 C15 3.68 15 2.36 15 1 C10.05 1 5.1 1 0 1 C0 0.67 0 0.34 0 0 Z " fill="#939393" transform="translate(351,229)"/>
<path d="M0 0 C2.64590014 -0.02684679 5.29153096 -0.04676357 7.9375 -0.0625 C8.69224609 -0.07087891 9.44699219 -0.07925781 10.22460938 -0.08789062 C12.14994313 -0.09652441 14.07535581 -0.05224333 16 0 C17 1 17 1 17.125 3.5 C17 6 17 6 16 7 C12.66381769 7.14257189 9.34024394 7.04228157 6 7 C6 10.3 6 13.6 6 17 C8.64 17 11.28 17 14 17 C14 17.33 14 17.66 14 18 C11.03 18 8.06 18 5 18 C5 13.71 5 9.42 5 5 C8.3 5 11.6 5 15 5 C15 3.68 15 2.36 15 1 C10.05 1 5.1 1 0 1 C0 0.67 0 0.34 0 0 Z " fill="#939393" transform="translate(175,229)"/>
<path d="M0 0 C0.99 0 1.98 0 3 0 C2.85970581 2.1462026 2.71261836 4.29196218 2.5625 6.4375 C2.48128906 7.63246094 2.40007812 8.82742188 2.31640625 10.05859375 C2 13 2 13 1 14 C-0.66617115 14.04063832 -2.33388095 14.042721 -4 14 C-2.68 13.67 -1.36 13.34 0 13 C0 8.71 0 4.42 0 0 Z " fill="#646464" transform="translate(244,256)"/>
<path d="M0 0 C0.33 0 0.66 0 1 0 C1.1799928 5.21979128 0.97094808 9.07262981 -1 14 C-1.66 14 -2.32 14 -3 14 C-4.28317892 10.15046324 -4.06643637 7.05261865 -4 3 C-3.67 3 -3.34 3 -3 3 C-3 4.65 -3 6.3 -3 8 C-2.34 8 -1.68 8 -1 8 C-0.67 5.36 -0.34 2.72 0 0 Z " fill="#838383" transform="translate(252,241)"/>
<path d="M0 0 C0.66 0 1.32 0 2 0 C2 4.62 2 9.24 2 14 C-1 11 -1 11 -1.328125 9.0625 C-1.30234375 8.381875 -1.2765625 7.70125 -1.25 7 C-1.23453125 6.319375 -1.2190625 5.63875 -1.203125 4.9375 C-1 3 -1 3 0 0 Z " fill="#686868" transform="translate(254,255)"/>
<path d="M0 0 C0.99 0.33 1.98 0.66 3 1 C1.5361389 5.39158329 -0.97831338 5.87947433 -5 8 C-3.62845496 5.04590299 -2.01136276 2.55991624 0 0 Z " fill="#A0A0A0" transform="translate(329,139)"/>
<path d="M0 0 C0.33 0 0.66 0 1 0 C1.12375 1.216875 1.2475 2.43375 1.375 3.6875 C1.69646525 6.36322548 2.11170094 8.27925234 3.125 10.8125 C4 13 4 13 3 16 C-1.01676824 11.14640505 -0.28136159 5.95027665 0 0 Z " fill="#ADADAD" transform="translate(118,117)"/>
<path d="M0 0 C0.66 0.33 1.32 0.66 2 1 C-0.97 3.97 -3.94 6.94 -7 10 C-7 6.04435836 -5.59478606 4.89133304 -3 2 C-2.01 1.34 -1.02 0.68 0 0 Z " fill="#D7D7D7" transform="translate(122,104)"/>
<path d="M0 0 C3.96 0.33 7.92 0.66 12 1 C12 1.33 12 1.66 12 2 C8.37 2.33 4.74 2.66 1 3 C0.67 2.01 0.34 1.02 0 0 Z " fill="#7D7D7D" transform="translate(132,139)"/>
</svg>
